<svg width="128" height="128" viewBox="-30 -30 190 190" xmlns="http://www.w3.org/2000/svg">
  <g transform="matrix(0.63768292363211,0,0,0.6776138150980632,-8541.152067475196,-6736.319395390805)">
    <path d="m13493.20494,10101.7019c2.86292,0 5.78627,-1.07128 8.92957,-3.26379c0.94083,-0.64075 1.16132,-1.922 0.52045,-2.85291c-0.66082,-0.93115 -1.98211,-1.17126 -2.84297,-0.5108c-4.9254,3.40375 -8.28908,3.40375 -13.21411,0c-0.90128,-0.66046 -2.20247,-0.42035 -2.84334,0.5108c-0.64037,0.93091 -0.42038,2.21216 0.52083,2.85291c3.14331,2.19251 6.06625,3.26379 8.92957,3.26379z" fill="#87545f"/>
    <path d="m13533.28787,9975.70606c5.92663,-4.46461 10.83172,-2.3125 16.77832,0.28039c3.46335,1.51172 7.18753,3.14331 11.21164,3.14331c2.98336,0 6.14675,-0.90082 9.49047,-3.43378c0.90076,-0.68078 1.08121,-1.96203 0.4004,-2.87286c-0.68079,-0.91132 -1.98212,-1.07129 -2.88288,-0.39044c-5.88672,4.46454 -10.85168,2.30255 -16.77832,-0.29035c-6.00622,-2.63299 -12.81381,-5.62591 -20.70212,0.2804c-0.90127,0.68079 -1.08133,1.97205 -0.40039,2.87286c0.68079,0.91132 1.94205,1.04126 2.88288,0.41047z" fill="#d8232a"/>
    <path d="m13568.28582,9986.1073c-5.92663,4.45496 -10.87164,2.29254 -16.7984,-0.30048c-6.00626,-2.6325 -12.81369,-5.59576 -20.68204,0.29047c-0.90127,0.69086 -1.08133,1.97205 -0.40039,2.87335c0.68079,0.91083 1.94205,1.06085 2.88288,0.40039c5.92663,-4.47497 10.85168,-2.31244 16.75796,0.28003c3.46375,1.52167 7.18793,3.15332 11.21204,3.15332c3.00332,0 6.16671,-0.91082 9.51043,-3.43335c0.90076,-0.68078 1.08121,-1.96252 0.4004,-2.86328c-0.68079,-0.94086 -1.98212,-1.08136 -2.88288,-0.40045z" fill="#d8232a"/>
    <path d="m13568.28582,9999.77185c-5.88672,4.45502 -10.83172,2.29248 -16.7984,-0.29999c-6.00626,-2.64294 -12.81369,-5.6062 -20.68204,0.29999c-0.90127,0.68091 -1.08133,1.9621 -0.40039,2.8634c0.68079,0.91083 1.94205,1.07117 2.88288,0.40046c5.92663,-4.47504 10.83172,-2.31263 16.77832,0.2904c3.46335,1.51111 7.18753,3.14331 11.21164,3.14331c2.98336,0 6.14675,-0.9013 9.49047,-3.43371c0.90076,-0.68097 1.08121,-1.96216 0.4004,-2.87342c-0.68079,-0.92084 -1.98212,-1.08081 -2.88288,-0.39044z" fill="#d8232a"/>
    <path d="m13568.28582,10013.43683c-5.88672,4.44464 -10.85168,2.31262 -16.77832,-0.29041c-6.00622,-2.64282 -12.81381,-5.62616 -20.70212,0.28052c-0.90127,0.68036 -1.08133,1.97205 -0.40039,2.8728c0.68079,0.9209 1.94205,1.06128 2.88288,0.41046c5.92663,-4.48455 10.83172,-2.30255 16.77832,0.2804c3.46335,1.51166 7.18753,3.14331 11.21164,3.14331c2.98336,0 6.14675,-0.90076 9.49047,-3.43371c0.90076,-0.68079 1.08121,-1.96204 0.4004,-2.87287c-0.68079,-0.91131 -1.98212,-1.07129 -2.88288,-0.3905z" fill="#d8232a"/>
    <path d="m13568.28582,10027.11151c-5.92663,4.46497 -10.87164,2.29248 -16.7984,-0.30048c-6.00626,-2.64294 -12.81369,-5.60583 -20.68204,0.29041c-0.90127,0.69086 -1.08133,1.97211 -0.40039,2.87299c0.68079,0.92126 1.94205,1.06128 2.88288,0.40045c5.92663,-4.48474 10.85168,-2.32257 16.75796,0.28033c3.46375,1.52173 7.18793,3.15338 11.21204,3.15338c3.00332,0 6.16671,-0.91082 9.51043,-3.43371c0.90076,-0.68042 1.08121,-1.96216 0.4004,-2.86298c-0.68079,-0.93091 -1.98212,-1.0813 -2.88288,-0.40039z" fill="#d8232a"/>
    <path d="m13568.28582,10040.776c-5.88672,4.45508 -10.83172,2.29248 -16.7984,-0.30035c-6.00626,-2.63251 -12.81369,-5.61585 -20.68204,0.30035c-0.90127,0.68091 -1.08133,1.96216 -0.40039,2.86334c0.68079,0.91095 1.94205,1.07086 2.88288,0.40039c5.92663,-4.46496 10.83172,-2.32238 16.77832,0.29004c3.46335,1.51166 7.18753,3.1438 11.21164,3.1438c2.98336,0 6.14675,-0.90124 9.49047,-3.43384c0.90076,-0.68078 1.08121,-1.96203 0.4004,-2.87323c-0.68079,-0.91082 -1.98212,-1.09124 -2.88288,-0.3905z" fill="#d8232a"/>
    <path d="m13568.28582,10054.44104c-5.88672,4.45465 -10.85168,2.29211 -16.77832,-0.29047c-6.00622,-2.64282 -12.81381,-5.63623 -20.70212,0.28052c-0.90127,0.68042 -1.08133,1.97205 -0.40039,2.87286c0.68079,0.90088 1.94205,1.05134 2.88288,0.41047c5.92663,-4.47504 10.83172,-2.32251 16.77832,0.28039c3.46335,1.5116 7.18753,3.14331 11.21164,3.14331c2.98336,0 6.14675,-0.90081 9.49047,-3.43377c0.90076,-0.68079 1.08121,-1.96204 0.4004,-2.87287c-0.68079,-0.90124 -1.98212,-1.0813 -2.88288,-0.39044z" fill="#d8232a"/>
    <path d="m13565.38244,10068.10565c-5.94623,4.45453 -10.89172,2.31244 -16.79788,-0.29046c-6.00675,-2.63288 -12.81381,-5.59577 -20.68253,0.29046c-0.90079,0.69086 -1.08084,1.97205 -0.40042,2.87287c0.68079,0.9212 1.96204,1.05133 2.88327,0.40039c5.90631,-4.48456 10.85169,-2.32239 16.77792,0.2904c3.44379,1.51178 7.16797,3.13342 11.19221,3.13342c2.98321,0 6.14663,-0.90093 9.51031,-3.41375c0.90088,-0.68042 1.08093,-1.97211 0.40039,-2.87287c-0.70074,-0.93133 -1.98248,-1.06128 -2.88327,-0.41046z" fill="#c63335"/>
    <path d="m13559.57623,10081.78021c-5.94623,4.46491 -10.87165,2.30255 -16.77793,-0.29046c-6.04669,-2.65247 -12.87372,-5.67572 -20.70248,0.29046c-0.90091,0.68091 -1.08084,1.9621 -0.40042,2.87335c0.68078,0.90076 1.94205,1.05079 2.88327,0.39039c5.86624,-4.48499 10.83169,-2.32245 16.79788,0.30004c3.44379,1.51166 7.14798,3.13331 11.17212,3.13331c3.00329,0 6.14673,-0.90082 9.51041,-3.43335c0.90091,-0.68085 1.08084,-1.96247 0.40042,-2.86335c-0.70075,-0.94085 -1.98249,-1.08123 -2.88327,-0.40039z" fill="#b53f41"/>
    <path d="m13550.84704,10095.44482c-5.90668,4.44501 -10.8317,2.30237 -16.73837,-0.26995c-6.04618,-2.65302 -12.87372,-5.63636 -20.72208,0.26995c-0.90076,0.68079 -1.08121,1.96204 -0.40042,2.86329c0.68082,0.91082 1.96216,1.07128 2.8829,0.40039c5.90668,-4.48487 10.85169,-2.30249 16.75836,0.29046c3.46335,1.51129 7.1875,3.14331 11.21164,3.14331c2.98334,0 6.14676,-0.9013 9.49045,-3.43377c0.90079,-0.68079 1.08121,-1.96198 0.40042,-2.8733c-0.70089,-0.91088 -1.98211,-1.08081 -2.8829,-0.39038z" fill="#994d53"/>
    <path d="m13420.52656,9975.70606c5.90629,-4.46461 10.83171,-2.3125 16.77794,0.28039c3.46374,1.51172 7.18789,3.14331 11.21216,3.14331c2.98333,0 6.14662,-0.90082 9.49032,-3.43378c0.90091,-0.68078 1.08135,-1.96203 0.40042,-2.87286c-0.70076,-0.91132 -1.98199,-1.07129 -2.88328,-0.39044c-5.8862,4.46454 -10.85167,2.30255 -16.77792,-0.29035c-6.00625,-2.63299 -12.83379,-5.62591 -20.70211,0.2804c-0.90117,0.68079 -1.08122,1.97205 -0.40042,2.87286c0.68042,0.91132 1.96216,1.04126 2.88289,0.41047z" fill="#0067a5"/>
    <path d="m13420.52656,9989.37103c5.90629,-4.47497 10.85167,-2.31244 16.75797,0.28003c3.46374,1.52167 7.18791,3.15332 11.21203,3.15332c3.00343,0 6.16672,-0.91082 9.51042,-3.43335c0.90091,-0.68078 1.08135,-1.96252 0.40042,-2.86328c-0.70076,-0.94086 -1.98199,-1.08136 -2.88328,-0.40045c-5.94622,4.45496 -10.87163,2.29254 -16.79788,-0.30048c-6.00625,-2.6325 -12.79374,-5.59576 -20.68215,0.29047c-0.90117,0.69086 -1.08122,1.97205 -0.40042,2.87335c0.68042,0.91083 1.96216,1.06085 2.88289,0.40039z" fill="#0067a5"/>
    <path d="m13533.28787,9962.25812c5.92663,-4.46503 10.83172,-2.3125 16.77832,0.28045c3.46335,1.5113 7.18753,3.14331 11.21164,3.14331c2.98336,0 6.14675,-0.90124 9.49047,-3.43371c0.90076,-0.68091 1.08121,-1.96216 0.4004,-2.87335c-0.68079,-0.91083 -1.98212,-1.07093 -2.88288,-0.39051c-5.88672,4.46509 -10.85168,2.30256 -16.77832,-0.28991c-6.00622,-2.63288 -12.81381,-5.62628 -20.70212,0.28003c-0.90127,0.68078 -1.08133,1.97204 -0.40039,2.87335c0.68079,0.91083 1.94205,1.04077 2.88288,0.41034z" fill="#d8232a"/>
    <path d="m13420.52656,9962.25812c5.90629,-4.46503 10.83171,-2.3125 16.77794,0.28045c3.46374,1.5113 7.18789,3.14331 11.21216,3.14331c2.98333,0 6.14662,-0.90124 9.49032,-3.43371c0.90091,-0.68091 1.08135,-1.96216 0.40042,-2.87335c-0.70076,-0.91083 -1.98199,-1.07093 -2.88328,-0.39051c-5.8862,4.46509 -10.85167,2.30256 -16.77792,-0.28991c-6.00625,-2.63288 -12.83379,-5.62628 -20.70211,0.28003c-0.90117,0.68078 -1.08122,1.97204 -0.40042,2.87335c0.68042,0.91083 1.96216,1.04077 2.88289,0.41034z" fill="#0067a5"/>
    <path d="m13420.52656,10003.03571c5.90629,-4.47504 10.83171,-2.31263 16.77794,0.2904c3.46374,1.51111 7.18789,3.14331 11.21216,3.14331c2.98333,0 6.14662,-0.9013 9.49032,-3.43371c0.90091,-0.68097 1.08135,-1.96216 0.40042,-2.87342c-0.70076,-0.92084 -1.98199,-1.08081 -2.88328,-0.39044c-5.8862,4.45502 -10.83119,2.29248 -16.79788,-0.29999c-6.00625,-2.64294 -12.79374,-5.6062 -20.68215,0.29999c-0.90117,0.68091 -1.08122,1.9621 -0.40042,2.8634c0.68042,0.91083 1.96216,1.07117 2.88289,0.40046z" fill="#0067a5"/>
    <path d="m13420.52656,10016.7102c5.90629,-4.48455 10.83171,-2.30255 16.77794,0.2804c3.46374,1.51166 7.18789,3.14331 11.21216,3.14331c2.98333,0 6.14662,-0.90076 9.49032,-3.43371c0.90091,-0.68079 1.08135,-1.96204 0.40042,-2.87287c-0.70076,-0.91131 -1.98199,-1.07129 -2.88328,-0.3905c-5.8862,4.44464 -10.85167,2.31262 -16.77792,-0.29041c-6.00625,-2.64282 -12.83379,-5.62616 -20.70211,0.28052c-0.90117,0.68036 -1.08122,1.97205 -0.40042,2.8728c0.68042,0.9209 1.96216,1.06128 2.88289,0.41046z" fill="#0067a5"/>
    <path d="m13420.52656,10030.37488c5.90629,-4.48474 10.85167,-2.32257 16.75797,0.28033c3.46374,1.52173 7.18791,3.15338 11.21203,3.15338c3.00343,0 6.16672,-0.91082 9.51042,-3.43371c0.90091,-0.68042 1.08135,-1.96216 0.40042,-2.86298c-0.70076,-0.93091 -1.98199,-1.0813 -2.88328,-0.40039c-5.94622,4.46497 -10.87163,2.29248 -16.79788,-0.30048c-6.00625,-2.64294 -12.79374,-5.60583 -20.68215,0.29041c-0.90117,0.69086 -1.08122,1.97211 -0.40042,2.87299c0.68042,0.92126 1.96216,1.06128 2.88289,0.40045z" fill="#0067a5"/>
    <path d="m13420.52656,10044.03973c5.90629,-4.46496 10.83171,-2.32238 16.77794,0.29004c3.46374,1.51166 7.18789,3.1438 11.21216,3.1438c2.98333,0 6.14662,-0.90124 9.49032,-3.43384c0.90091,-0.68078 1.08135,-1.96203 0.40042,-2.87323c-0.70076,-0.91082 -1.98199,-1.09124 -2.88328,-0.3905c-5.8862,4.45508 -10.83119,2.29248 -16.79788,-0.30035c-6.00625,-2.63251 -12.79374,-5.61585 -20.68215,0.30035c-0.90117,0.68091 -1.08122,1.96216 -0.40042,2.86334c0.68042,0.91095 1.96216,1.07086 2.88289,0.40039z" fill="#0067a5"/>
    <path d="m13437.3045,10057.99481c3.46374,1.5116 7.18789,3.14331 11.21216,3.14331c2.98333,0 6.14662,-0.90081 9.49032,-3.43377c0.90091,-0.68079 1.08135,-1.96204 0.40042,-2.87287c-0.70076,-0.90124 -1.98199,-1.0813 -2.88328,-0.39044c-5.8862,4.45465 -10.85167,2.29211 -16.77792,-0.29047c-6.00625,-2.64282 -12.83379,-5.63623 -20.70211,0.28052c-0.90117,0.68042 -1.08122,1.97205 -0.40042,2.87286c0.68042,0.90088 1.96216,1.05134 2.88289,0.41047c5.90629,-4.47504 10.83171,-2.32251 16.77794,0.28039z" fill="#0067a5"/>
    <path d="m13440.18789,10071.65942c3.46375,1.52167 7.18753,3.15332 11.21204,3.15332c3.00331,0 6.16671,-0.91094 9.51004,-3.43383c0.90129,-0.68042 1.0812,-1.96204 0.40042,-2.8628c-0.70038,-0.93133 -1.98212,-1.09124 -2.88291,-0.40045c-5.92625,4.44452 -10.89172,2.30243 -16.79801,-0.30047c-6.00663,-2.63288 -12.79374,-5.59577 -20.68239,0.29046c-0.90091,0.69086 -1.08135,1.97205 -0.40043,2.87287c0.68081,0.9212 1.96203,1.05133 2.88328,0.40039c5.90629,-4.48456 10.85167,-2.30243 16.75796,0.28051z" fill="#216395"/>
    <path d="m13446.01408,10085.32391c3.46374,1.52167 7.18753,3.15339 11.21216,3.15339c2.98335,0 6.14662,-0.90082 9.48996,-3.43335c0.90127,-0.68085 1.0812,-1.96247 0.4004,-2.8733c-0.70038,-0.9309 -1.98212,-1.07128 -2.88289,-0.39044c-5.90629,4.44501 -10.85167,2.32251 -16.75796,-0.29046c-6.04668,-2.65247 -12.85375,-5.67572 -20.70249,0.29046c-0.90078,0.68091 -1.08122,1.9621 -0.40042,2.87335c0.6808,0.90076 1.96216,1.05079 2.88341,0.39039c5.90616,-4.45496 10.85167,-2.3125 16.75783,0.27996z" fill="#576080"/>
    <path d="m13475.44575,10098.71863c0.90089,-0.69092 1.08133,-1.97211 0.40041,-2.87342c-0.70076,-0.94079 -1.98199,-1.09082 -2.88327,-0.40039c-5.94623,4.46497 -10.85168,2.30237 -16.77793,-0.29004c-6.00624,-2.65289 -12.8137,-5.63622 -20.70212,0.27997c-0.90127,0.68097 -1.0812,1.97211 -0.4004,2.87336c0.66044,0.91082 1.96214,1.0512 2.88289,0.41052c5.90629,-4.4751 10.85166,-2.31262 16.7984,0.2904c3.44327,1.5116 7.14747,3.13324 11.1716,3.13324c3.00343,0 6.14674,-0.9013 9.51042,-3.42364z" fill="#6c5b72"/>
    <path d="m13530.64492,10109.10986c-5.94623,4.46454 -10.85165,2.29248 -16.77792,-0.28039c-6.04668,-2.64295 -12.85376,-5.66638 -20.70198,0.29028c-5.92677,4.45465 -10.87177,2.29248 -16.75835,-0.28039c-6.04629,-2.66291 -12.85376,-5.67627 -20.70212,0.28039c-0.90089,0.68042 -1.0812,1.96216 -0.4004,2.87293c0.68078,0.90081 1.94206,1.06127 2.88289,0.39038c5.88672,-4.45453 10.83171,-2.31244 16.73838,0.28051c3.46323,1.52173 7.1874,3.15326 11.21202,3.15326c3.00294,0 6.16622,-0.91082 9.51004,-3.43377c5.86625,-4.47449 10.83159,-2.3324 16.77793,0.29046c3.44366,1.51178 7.16782,3.13336 11.19208,3.13336c2.98333,0 6.14663,-0.90087 9.51043,-3.41375c0.90076,-0.68079 1.08121,-1.97211 0.40039,-2.87299c-0.70086,-0.92126 -1.98211,-1.07116 -2.88339,-0.41028z" fill="#87545f"/>
  </g>
</svg>